<mxfile host="Electron" modified="2023-12-13T23:08:56.965Z" agent="Mozilla/5.0 (Windows NT 10.0; Win64; x64) AppleWebKit/537.36 (KHTML, like Gecko) draw.io/22.1.2 Chrome/114.0.5735.289 Electron/25.9.4 Safari/537.36" etag="ymo_n5EYuCB6GVIM5EwK" version="22.1.2" type="device">
  <diagram name="Page-1" id="LpyZSk3C_9BYre2scjm5">
    <mxGraphModel dx="1036" dy="654" grid="1" gridSize="10" guides="1" tooltips="1" connect="1" arrows="1" fold="1" page="1" pageScale="1" pageWidth="850" pageHeight="1100" math="0" shadow="0">
      <root>
        <mxCell id="0" />
        <mxCell id="1" parent="0" />
        <mxCell id="ULzaCmHFg9BGS1sV1W4L-1" value="START" style="ellipse;whiteSpace=wrap;html=1;" vertex="1" parent="1">
          <mxGeometry x="360" y="40" width="120" height="80" as="geometry" />
        </mxCell>
        <mxCell id="ULzaCmHFg9BGS1sV1W4L-2" value="END" style="ellipse;whiteSpace=wrap;html=1;" vertex="1" parent="1">
          <mxGeometry x="360" y="440" width="120" height="80" as="geometry" />
        </mxCell>
        <mxCell id="ULzaCmHFg9BGS1sV1W4L-11" style="edgeStyle=orthogonalEdgeStyle;rounded=0;orthogonalLoop=1;jettySize=auto;html=1;exitX=0.5;exitY=0;exitDx=0;exitDy=0;entryX=0.5;entryY=1;entryDx=0;entryDy=0;" edge="1" parent="1" source="ULzaCmHFg9BGS1sV1W4L-4" target="ULzaCmHFg9BGS1sV1W4L-1">
          <mxGeometry relative="1" as="geometry" />
        </mxCell>
        <mxCell id="ULzaCmHFg9BGS1sV1W4L-12" style="edgeStyle=orthogonalEdgeStyle;rounded=0;orthogonalLoop=1;jettySize=auto;html=1;exitX=0.5;exitY=1;exitDx=0;exitDy=0;entryX=0.5;entryY=0;entryDx=0;entryDy=0;" edge="1" parent="1" source="ULzaCmHFg9BGS1sV1W4L-4" target="ULzaCmHFg9BGS1sV1W4L-5">
          <mxGeometry relative="1" as="geometry" />
        </mxCell>
        <mxCell id="ULzaCmHFg9BGS1sV1W4L-4" value="number" style="shape=parallelogram;perimeter=parallelogramPerimeter;whiteSpace=wrap;html=1;fixedSize=1;" vertex="1" parent="1">
          <mxGeometry x="360" y="160" width="120" height="60" as="geometry" />
        </mxCell>
        <mxCell id="ULzaCmHFg9BGS1sV1W4L-9" value="TRUE" style="edgeStyle=orthogonalEdgeStyle;rounded=0;orthogonalLoop=1;jettySize=auto;html=1;exitX=1;exitY=0.5;exitDx=0;exitDy=0;entryX=0;entryY=0.5;entryDx=0;entryDy=0;" edge="1" parent="1" source="ULzaCmHFg9BGS1sV1W4L-5" target="ULzaCmHFg9BGS1sV1W4L-6">
          <mxGeometry relative="1" as="geometry" />
        </mxCell>
        <mxCell id="ULzaCmHFg9BGS1sV1W4L-10" value="FALSE" style="edgeStyle=orthogonalEdgeStyle;rounded=0;orthogonalLoop=1;jettySize=auto;html=1;exitX=0;exitY=0.5;exitDx=0;exitDy=0;entryX=1;entryY=0.5;entryDx=0;entryDy=0;" edge="1" parent="1" source="ULzaCmHFg9BGS1sV1W4L-5" target="ULzaCmHFg9BGS1sV1W4L-7">
          <mxGeometry relative="1" as="geometry" />
        </mxCell>
        <mxCell id="ULzaCmHFg9BGS1sV1W4L-5" value="number &amp;gt; 10" style="rhombus;whiteSpace=wrap;html=1;" vertex="1" parent="1">
          <mxGeometry x="360" y="280" width="120" height="80" as="geometry" />
        </mxCell>
        <mxCell id="ULzaCmHFg9BGS1sV1W4L-16" style="edgeStyle=orthogonalEdgeStyle;rounded=0;orthogonalLoop=1;jettySize=auto;html=1;entryX=1;entryY=0.5;entryDx=0;entryDy=0;" edge="1" parent="1" source="ULzaCmHFg9BGS1sV1W4L-6" target="ULzaCmHFg9BGS1sV1W4L-2">
          <mxGeometry relative="1" as="geometry">
            <Array as="points">
              <mxPoint x="660" y="480" />
            </Array>
          </mxGeometry>
        </mxCell>
        <mxCell id="ULzaCmHFg9BGS1sV1W4L-6" value="10-dan boyukdur!" style="shape=document;whiteSpace=wrap;html=1;boundedLbl=1;" vertex="1" parent="1">
          <mxGeometry x="600" y="280" width="120" height="80" as="geometry" />
        </mxCell>
        <mxCell id="ULzaCmHFg9BGS1sV1W4L-17" style="edgeStyle=orthogonalEdgeStyle;rounded=0;orthogonalLoop=1;jettySize=auto;html=1;entryX=0;entryY=0.5;entryDx=0;entryDy=0;" edge="1" parent="1" source="ULzaCmHFg9BGS1sV1W4L-7" target="ULzaCmHFg9BGS1sV1W4L-2">
          <mxGeometry relative="1" as="geometry">
            <Array as="points">
              <mxPoint x="170" y="480" />
            </Array>
          </mxGeometry>
        </mxCell>
        <mxCell id="ULzaCmHFg9BGS1sV1W4L-7" value="10-dan kicik ve ya beraberdir!" style="shape=document;whiteSpace=wrap;html=1;boundedLbl=1;" vertex="1" parent="1">
          <mxGeometry x="120" y="280" width="120" height="80" as="geometry" />
        </mxCell>
        <mxCell id="ULzaCmHFg9BGS1sV1W4L-8" value="10 ile muqayise." style="whiteSpace=wrap;html=1;aspect=fixed;" vertex="1" parent="1">
          <mxGeometry x="80" y="40" width="120" height="120" as="geometry" />
        </mxCell>
      </root>
    </mxGraphModel>
  </diagram>
</mxfile>
